<?xml version="1.0" encoding="UTF-8" standalone="no"?>
<!-- Generator: Adobe Illustrator 16.0.0, SVG Export Plug-In . SVG Version: 6.00 Build 0)  -->

<svg
   xmlns:dc="http://purl.org/dc/elements/1.1/"
   xmlns:cc="http://creativecommons.org/ns#"
   xmlns:rdf="http://www.w3.org/1999/02/22-rdf-syntax-ns#"
   xmlns:svg="http://www.w3.org/2000/svg"
   xmlns="http://www.w3.org/2000/svg"
   xmlns:sodipodi="http://sodipodi.sourceforge.net/DTD/sodipodi-0.dtd"
   xmlns:inkscape="http://www.inkscape.org/namespaces/inkscape"
   version="1.1"
   id="Capa_1"
   x="0px"
   y="0px"
   width="958px"
   height="958px"
   viewBox="0 0 958 958"
   style="enable-background:new 0 0 958 958;"
   xml:space="preserve"
   sodipodi:docname="download-to-inbox-white.svg"
   inkscape:version="0.92.3 (2405546, 2018-03-11)"><metadata
   id="metadata45"><rdf:RDF><cc:Work
       rdf:about=""><dc:format>image/svg+xml</dc:format><dc:type
         rdf:resource="http://purl.org/dc/dcmitype/StillImage" /><dc:title></dc:title></cc:Work></rdf:RDF></metadata><defs
   id="defs43" /><sodipodi:namedview
   pagecolor="#ffffff"
   bordercolor="#666666"
   borderopacity="1"
   objecttolerance="10"
   gridtolerance="10"
   guidetolerance="10"
   inkscape:pageopacity="0"
   inkscape:pageshadow="2"
   inkscape:window-width="1052"
   inkscape:window-height="846"
   id="namedview41"
   showgrid="false"
   inkscape:zoom="0.24634656"
   inkscape:cx="479"
   inkscape:cy="479"
   inkscape:window-x="0"
   inkscape:window-y="0"
   inkscape:window-maximized="0"
   inkscape:current-layer="Capa_1" />
<g
   id="g8">
	<g
   id="g6">
		<polygon
   points="394,17.05 394,403.75 249.6,403.75 479,730.95 708.399,403.75 564,403.75 564,17.05   "
   id="polygon2" />
		<polygon
   points="788,770.95 170,770.95 170,699.95 0,699.95 0,940.95 958,940.95 958,699.95 788,699.95   "
   id="polygon4" />
	</g>
</g>
<g
   id="g10">
</g>
<g
   id="g12">
</g>
<g
   id="g14">
</g>
<g
   id="g16">
</g>
<g
   id="g18">
</g>
<g
   id="g20">
</g>
<g
   id="g22">
</g>
<g
   id="g24">
</g>
<g
   id="g26">
</g>
<g
   id="g28">
</g>
<g
   id="g30">
</g>
<g
   id="g32">
</g>
<g
   id="g34">
</g>
<g
   id="g36">
</g>
<g
   id="g38">
</g>
<path
   style="fill:#ffffff;stroke-width:4.05932188"
   d="m 2.4355932,820.38898 v -119.75 H 85.651695 168.8678 v 36.5339 36.5339 h 310.53813 310.53814 v -36.5339 -36.5339 h 83.2161 83.2161 v 119.75 119.75 H 479.40593 2.4355932 Z"
   id="path3750"
   inkscape:connector-curvature="0" /><path
   style="fill:#ffffff;stroke-width:4.05932188"
   d="M 460.03283,699.97825 C 449.99038,685.82956 399.46147,613.97246 347.74637,540.29576 l -94.02745,-133.95762 71.23546,-1.1085 71.23545,-1.1085 V 211.39701 18.672881 h 83.2161 83.2161 V 211.39701 404.12114 l 70.76918,1.1085 70.76915,1.1085 -109.5947,156.28389 c -60.2771,85.95615 -111.09753,157.81325 -112.93429,159.68249 -1.83675,1.86919 -11.5561,-8.17763 -21.59854,-22.32627 z"
   id="path3752"
   inkscape:connector-curvature="0" /><path
   style="fill:#ffffff;stroke-width:4.05932188"
   d="m 2.4355932,820.38898 v -119.75 H 85.651695 168.8678 v 36.5339 36.5339 h 310.53813 310.53814 v -36.5339 -36.5339 h 83.2161 83.2161 v 119.75 119.75 H 479.40593 2.4355932 Z"
   id="path3754"
   inkscape:connector-curvature="0" /><path
   style="fill:#ffffff;stroke-width:4.05932188"
   d="M 470.38407,707.7428 C 465.76001,702.71939 416.16586,633.30498 360.17486,553.48856 L 258.37304,408.3678 l 53.68594,-0.0447 c 29.52726,-0.0246 60.53604,-1.17693 68.90839,-2.56079 l 15.22246,-2.51612 V 210.95955 18.672881 h 83.2161 83.2161 V 210.95955 403.24621 l 15.22246,2.51612 c 8.37235,1.38386 38.51282,2.53622 66.97882,2.56079 28.46599,0.0248 51.75635,1.03712 51.75635,2.2501 0,1.21298 -42.76478,63.06791 -95.03284,137.45539 -52.26807,74.38748 -100.21881,142.74013 -106.55721,151.89476 -6.33839,9.15462 -12.57596,16.71413 -13.86125,16.79885 -1.28529,0.0848 -6.12022,-3.95601 -10.74429,-8.97942 z"
   id="path3756"
   inkscape:connector-curvature="0" /><path
   style="fill:#ffffff;stroke-width:4.05932188"
   d="M 470.38407,707.7428 C 465.76001,702.71939 416.16586,633.30498 360.17486,553.48856 L 258.37304,408.3678 l 53.68594,-0.0447 c 29.52726,-0.0246 60.53604,-1.17693 68.90839,-2.56079 l 15.22246,-2.51612 V 210.95955 18.672881 h 83.2161 83.2161 V 210.95955 403.24621 l 15.22246,2.51612 c 8.37235,1.38386 38.51282,2.53622 66.97882,2.56079 28.46599,0.0248 51.75635,1.03712 51.75635,2.2501 0,1.21298 -42.76478,63.06791 -95.03284,137.45539 -52.26807,74.38748 -100.21881,142.74013 -106.55721,151.89476 -6.33839,9.15462 -12.57596,16.71413 -13.86125,16.79885 -1.28529,0.0848 -6.12022,-3.95601 -10.74429,-8.97942 z"
   id="path3758"
   inkscape:connector-curvature="0" /><path
   style="fill:#ffffff;stroke-width:4.05932188"
   d="M 470.38407,707.7428 C 465.76001,702.71939 416.16586,633.30498 360.17486,553.48856 L 258.37304,408.3678 l 53.68594,-0.0447 c 29.52726,-0.0246 60.53604,-1.17693 68.90839,-2.56079 l 15.22246,-2.51612 V 210.95955 18.672881 h 83.2161 83.2161 V 210.95955 403.24621 l 15.22246,2.51612 c 8.37235,1.38386 38.66504,2.53622 67.31709,2.56079 29.33107,0.0252 51.50337,1.64895 50.74151,3.71607 -2.52526,6.85179 -212.42291,304.69979 -214.77473,304.76868 -1.28529,0.0365 -6.12022,-4.04166 -10.74429,-9.06507 z"
   id="path3760"
   inkscape:connector-curvature="0" /><path
   style="fill:#ffffff;stroke-width:4.05932188"
   d="M 470.38407,707.7428 C 465.76001,702.71939 416.16586,633.30498 360.17486,553.48856 L 258.37304,408.3678 l 53.68594,-0.0447 c 29.52726,-0.0246 60.53604,-1.17693 68.90839,-2.56079 l 15.22246,-2.51612 V 210.95955 18.672881 h 83.2161 83.2161 V 210.95955 403.24621 l 15.22246,2.51612 c 8.37235,1.38386 38.66504,2.53622 67.31709,2.56079 29.33107,0.0252 51.50337,1.64895 50.74151,3.71607 -2.52526,6.85179 -212.42291,304.69979 -214.77473,304.76868 -1.28529,0.0365 -6.12022,-4.04166 -10.74429,-9.06507 z"
   id="path3762"
   inkscape:connector-curvature="0" /><path
   style="fill:#ffffff;stroke-width:4.05932188"
   d="M 470.38407,707.7428 C 465.76001,702.71939 416.16586,633.30498 360.17486,553.48856 L 258.37304,408.3678 h 50.07488 c 27.54119,0 58.54997,-1.16164 68.9084,-2.58142 l 18.83351,-2.58142 V 210.93892 18.672881 h 83.2161 83.2161 V 210.93892 403.20496 l 18.83352,2.58142 c 10.35843,1.41978 40.65112,2.58142 67.31709,2.58142 27.19829,0 47.88955,1.61182 47.13045,3.67139 -2.52526,6.85179 -212.42291,304.69979 -214.77473,304.76868 -1.28529,0.0365 -6.12022,-4.04166 -10.74429,-9.06507 z"
   id="path3764"
   inkscape:connector-curvature="0" /><path
   style="fill:#ffffff;stroke-width:4.05932188"
   d="M 470.38407,707.7428 C 465.76001,702.71939 416.16586,633.30498 360.17486,553.48856 L 258.37304,408.3678 h 50.07488 c 27.54119,0 58.54997,-1.16164 68.9084,-2.58142 l 18.83351,-2.58142 V 210.93892 18.672881 h 83.2161 83.2161 V 210.93892 403.20496 l 18.83352,2.58142 c 10.35843,1.41978 40.65112,2.58142 67.31709,2.58142 27.19829,0 47.88955,1.61182 47.13045,3.67139 -2.52526,6.85179 -212.42291,304.69979 -214.77473,304.76868 -1.28529,0.0365 -6.12022,-4.04166 -10.74429,-9.06507 z"
   id="path3766"
   inkscape:connector-curvature="0" /><path
   style="fill:#ffffff;stroke-width:4.05932188"
   d="M 470.38407,707.7428 C 465.76001,702.71939 416.16586,633.30498 360.17486,553.48856 L 258.37304,408.3678 l 47.59695,-0.0353 c 26.17833,-0.0194 57.18711,-1.18719 68.9084,-2.59509 l 21.31144,-2.5598 V 210.92525 18.672881 h 83.2161 83.2161 V 210.92525 403.17762 l 21.31144,2.5598 c 11.7213,1.4079 42.01399,2.57569 67.31709,2.59509 25.70496,0.0199 45.40858,1.65535 44.65253,3.70668 -2.52526,6.85179 -212.42291,304.69979 -214.77473,304.76868 -1.28529,0.0365 -6.12022,-4.04166 -10.74429,-9.06507 z"
   id="path3768"
   inkscape:connector-curvature="0" /><path
   style="fill:#ffffff;stroke-width:4.05932188"
   d="M 470.38407,707.7428 C 465.76001,702.71939 416.16586,633.30498 360.17486,553.48856 L 258.37304,408.3678 h 43.957 c 24.17634,0 55.18512,-1.17357 68.90839,-2.60794 l 24.9514,-2.60794 V 210.9124 18.672881 h 83.2161 83.2161 V 210.9124 403.15192 l 24.9514,2.60794 c 13.72327,1.43437 44.01596,2.60794 67.3171,2.60794 23.55066,0 41.76476,1.6305 41.01256,3.67139 -2.52526,6.85179 -212.42291,304.69979 -214.77473,304.76868 -1.28529,0.0365 -6.12022,-4.04166 -10.74429,-9.06507 z"
   id="path3770"
   inkscape:connector-curvature="0" /><path
   style="fill:#ffffff;stroke-width:4.05932188"
   d="M 470.38407,707.7428 C 465.76001,702.71939 416.16586,633.30498 360.17486,553.48856 L 258.37304,408.3678 h 43.957 c 24.17634,0 55.18512,-1.17357 68.90839,-2.60794 l 24.9514,-2.60794 V 210.9124 18.672881 h 83.2161 83.2161 V 210.9124 403.15192 l 24.9514,2.60794 c 13.72327,1.43437 44.01596,2.60794 67.3171,2.60794 23.55066,0 41.76476,1.6305 41.01256,3.67139 -2.52526,6.85179 -212.42291,304.69979 -214.77473,304.76868 -1.28529,0.0365 -6.12022,-4.04166 -10.74429,-9.06507 z"
   id="path3772"
   inkscape:connector-curvature="0" /><path
   style="fill:#ffffff;stroke-width:4.05932188"
   d="M 470.38407,707.7428 C 465.76001,702.71939 416.16586,633.30498 360.17486,553.48856 L 258.37304,408.3678 h 43.957 c 24.17634,0 55.18512,-1.17357 68.90839,-2.60794 l 24.9514,-2.60794 V 210.9124 18.672881 h 83.2161 83.2161 V 210.9124 403.15192 l 24.9514,2.60794 c 13.72327,1.43437 44.01596,2.60794 67.3171,2.60794 23.55066,0 41.76476,1.6305 41.01256,3.67139 -2.52526,6.85179 -212.42291,304.69979 -214.77473,304.76868 -1.28529,0.0365 -6.12022,-4.04166 -10.74429,-9.06507 z"
   id="path3774"
   inkscape:connector-curvature="0" /><path
   style="fill:#ffffff;stroke-width:4.05932188"
   d="M 470.38407,707.7428 C 465.76001,702.71939 416.16586,633.30498 360.17486,553.48856 L 258.37304,408.3678 h 43.957 c 24.17634,0 55.18512,-1.17357 68.90839,-2.60794 l 24.9514,-2.60794 V 210.9124 18.672881 h 83.2161 83.2161 V 210.9124 403.15192 l 24.9514,2.60794 c 13.72327,1.43437 44.01596,2.60794 67.3171,2.60794 23.55066,0 41.76476,1.6305 41.01256,3.67139 -2.52526,6.85179 -212.42291,304.69979 -214.77473,304.76868 -1.28529,0.0365 -6.12022,-4.04166 -10.74429,-9.06507 z"
   id="path3776"
   inkscape:connector-curvature="0" /><path
   style="fill:#ffffff;stroke-width:4.05932188"
   d="M 470.38407,707.7428 C 465.76001,702.71939 416.16586,633.30498 360.17486,553.48856 L 258.37304,408.3678 h 43.957 c 24.17634,0 55.18512,-1.17357 68.90839,-2.60794 l 24.9514,-2.60794 V 210.9124 18.672881 h 83.2161 83.2161 V 210.9124 403.15192 l 24.9514,2.60794 c 13.72327,1.43437 44.01596,2.60794 67.3171,2.60794 23.55066,0 41.76476,1.6305 41.01256,3.67139 -2.52526,6.85179 -212.42291,304.69979 -214.77473,304.76868 -1.28529,0.0365 -6.12022,-4.04166 -10.74429,-9.06507 z"
   id="path3778"
   inkscape:connector-curvature="0" /><path
   style="fill:#ffffff;stroke-width:4.05932188"
   d="m 2.4355932,820.38898 v -119.75 H 85.651695 168.8678 v 36.5339 36.5339 h 310.53813 310.53814 v -36.5339 -36.5339 h 83.2161 83.2161 v 119.75 119.75 H 479.40593 2.4355932 Z"
   id="path3780"
   inkscape:connector-curvature="0" /><path
   style="fill:#ffffff;stroke-width:4.05932188"
   d="m 2.4355932,820.38898 v -119.75 H 85.651695 168.8678 v 36.5339 36.5339 h 310.53813 310.53814 v -36.5339 -36.5339 h 83.2161 83.2161 v 119.75 119.75 H 479.40593 2.4355932 Z"
   id="path3782"
   inkscape:connector-curvature="0" /><path
   style="fill:#ffffff;stroke-width:4.05932188"
   d="m 2.4355932,820.38898 v -119.75 H 85.651695 168.8678 v 36.5339 36.5339 h 310.53813 310.53814 v -36.5339 -36.5339 h 83.2161 83.2161 v 119.75 119.75 H 479.40593 2.4355932 Z"
   id="path3784"
   inkscape:connector-curvature="0" /><path
   style="fill:#ffffff;stroke-width:4.05932188"
   d="m 2.4355932,820.38898 v -119.75 H 85.651695 168.8678 v 36.5339 36.5339 h 310.53813 310.53814 v -36.5339 -36.5339 h 83.2161 83.2161 v 119.75 119.75 H 479.40593 2.4355932 Z"
   id="path3786"
   inkscape:connector-curvature="0" /><path
   style="fill:#ffffff;stroke-width:4.05932188"
   d="m 2.4355932,820.38898 v -119.75 H 85.651695 168.8678 v 36.5339 36.5339 h 310.53813 310.53814 v -36.5339 -36.5339 h 83.2161 83.2161 v 119.75 119.75 H 479.40593 2.4355932 Z"
   id="path3788"
   inkscape:connector-curvature="0" /><path
   style="fill:#ffffff;stroke-width:4.05932188"
   d="m 2.4355932,820.38898 v -119.75 H 85.651695 168.8678 v 36.5339 36.5339 h 310.53813 310.53814 v -36.5339 -36.5339 h 83.2161 83.2161 v 119.75 119.75 H 479.40593 2.4355932 Z"
   id="path3790"
   inkscape:connector-curvature="0" /><path
   style="fill:#ffffff;stroke-width:4.05932188"
   d="m 2.4355932,820.38898 v -119.75 H 85.651695 168.8678 v 36.5339 36.5339 h 310.53813 310.53814 v -36.5339 -36.5339 h 83.2161 83.2161 v 119.75 119.75 H 479.40593 2.4355932 Z"
   id="path3792"
   inkscape:connector-curvature="0" /><path
   style="fill:#ffffff;stroke-width:4.05932188"
   d="M 470.38407,707.7428 C 465.76001,702.71939 416.16586,633.30498 360.17486,553.48856 L 258.37304,408.3678 h 43.957 c 24.17634,0 55.18512,-1.17357 68.90839,-2.60794 l 24.9514,-2.60794 V 210.9124 18.672881 h 83.2161 83.2161 V 210.9124 403.15192 l 24.9514,2.60794 c 13.72327,1.43437 44.01596,2.60794 67.3171,2.60794 23.55066,0 41.76476,1.6305 41.01256,3.67139 -2.52526,6.85179 -212.42291,304.69979 -214.77473,304.76868 -1.28529,0.0365 -6.12022,-4.04166 -10.74429,-9.06507 z"
   id="path3794"
   inkscape:connector-curvature="0" /><path
   style="fill:#ffffff;stroke-width:4.05932188"
   d="M 470.38407,707.7428 C 465.76001,702.71939 416.16586,633.30498 360.17486,553.48856 L 258.37304,408.3678 h 43.957 c 24.17634,0 55.18512,-1.17357 68.90839,-2.60794 l 24.9514,-2.60794 V 210.9124 18.672881 h 83.2161 83.2161 V 210.9124 403.15192 l 24.9514,2.60794 c 13.72327,1.43437 44.01596,2.60794 67.3171,2.60794 23.55066,0 41.76476,1.6305 41.01256,3.67139 -2.52526,6.85179 -212.42291,304.69979 -214.77473,304.76868 -1.28529,0.0365 -6.12022,-4.04166 -10.74429,-9.06507 z"
   id="path3796"
   inkscape:connector-curvature="0" /><path
   style="fill:#ffffff;stroke-width:4.05932188"
   d="M 470.38407,707.7428 C 465.76001,702.71939 416.16586,633.30498 360.17486,553.48856 L 258.37304,408.3678 h 43.957 c 24.17634,0 55.18512,-1.17357 68.90839,-2.60794 l 24.9514,-2.60794 V 210.9124 18.672881 h 83.2161 83.2161 V 210.9124 403.15192 l 24.9514,2.60794 c 13.72327,1.43437 44.01596,2.60794 67.3171,2.60794 23.55066,0 41.76476,1.6305 41.01256,3.67139 -2.52526,6.85179 -212.42291,304.69979 -214.77473,304.76868 -1.28529,0.0365 -6.12022,-4.04166 -10.74429,-9.06507 z"
   id="path3798"
   inkscape:connector-curvature="0" /><path
   style="fill:#ffffff;stroke-width:4.05932188"
   d="M 470.38407,707.7428 C 465.76001,702.71939 416.16586,633.30498 360.17486,553.48856 L 258.37304,408.3678 h 43.957 c 24.17634,0 55.18512,-1.17357 68.90839,-2.60794 l 24.9514,-2.60794 V 210.9124 18.672881 h 83.2161 83.2161 V 210.9124 403.15192 l 24.9514,2.60794 c 13.72327,1.43437 44.01596,2.60794 67.3171,2.60794 23.55066,0 41.76476,1.6305 41.01256,3.67139 -2.52526,6.85179 -212.42291,304.69979 -214.77473,304.76868 -1.28529,0.0365 -6.12022,-4.04166 -10.74429,-9.06507 z"
   id="path3800"
   inkscape:connector-curvature="0" /><path
   style="fill:#ffffff;stroke-width:4.05932188"
   d="M 470.38407,707.7428 C 465.76001,702.71939 416.16586,633.30498 360.17486,553.48856 L 258.37304,408.3678 h 43.957 c 24.17634,0 55.18512,-1.17357 68.90839,-2.60794 l 24.9514,-2.60794 V 210.9124 18.672881 h 83.2161 83.2161 V 210.9124 403.15192 l 24.9514,2.60794 c 13.72327,1.43437 44.01596,2.60794 67.3171,2.60794 23.55066,0 41.76476,1.6305 41.01256,3.67139 -2.52526,6.85179 -212.42291,304.69979 -214.77473,304.76868 -1.28529,0.0365 -6.12022,-4.04166 -10.74429,-9.06507 z"
   id="path3802"
   inkscape:connector-curvature="0" /><path
   style="fill:#ffffff;stroke-width:4.05932188"
   d="M 470.38407,707.7428 C 465.76001,702.71939 416.16586,633.30498 360.17486,553.48856 L 258.37304,408.3678 h 43.957 c 24.17634,0 55.18512,-1.17357 68.90839,-2.60794 l 24.9514,-2.60794 V 210.9124 18.672881 h 83.2161 83.2161 V 210.9124 403.15192 l 24.9514,2.60794 c 13.72327,1.43437 44.01596,2.60794 67.3171,2.60794 23.55066,0 41.76476,1.6305 41.01256,3.67139 -2.52526,6.85179 -212.42291,304.69979 -214.77473,304.76868 -1.28529,0.0365 -6.12022,-4.04166 -10.74429,-9.06507 z"
   id="path3804"
   inkscape:connector-curvature="0" /><path
   style="fill:#ffffff;stroke-width:4.05932188"
   d="M 470.38407,707.7428 C 465.76001,702.71939 416.16586,633.30498 360.17486,553.48856 L 258.37304,408.3678 h 43.957 c 24.17634,0 55.18512,-1.17357 68.90839,-2.60794 l 24.9514,-2.60794 V 210.9124 18.672881 h 83.2161 83.2161 V 210.9124 403.15192 l 24.9514,2.60794 c 13.72327,1.43437 44.01596,2.60794 67.3171,2.60794 23.55066,0 41.76476,1.6305 41.01256,3.67139 -2.52526,6.85179 -212.42291,304.69979 -214.77473,304.76868 -1.28529,0.0365 -6.12022,-4.04166 -10.74429,-9.06507 z"
   id="path3806"
   inkscape:connector-curvature="0" /><path
   style="fill:#ffffff;stroke-width:4.05932188"
   d="M 470.38407,707.7428 C 465.76001,702.71939 416.33081,633.53981 360.5414,554.01039 L 259.10612,409.41142 322.81899,407.5752 c 35.04207,-1.00993 65.88591,-3.17924 68.54185,-4.82071 3.62147,-2.23819 4.82899,-50.63236 4.82899,-193.53304 V 18.672881 h 83.2161 83.2161 V 209.22145 c 0,141.71566 1.22397,191.30502 4.776,193.50029 2.62679,1.62345 32.83726,3.80461 67.13437,4.84702 34.29713,1.04241 61.83171,3.30076 61.18798,5.01856 -2.46189,6.5697 -212.37396,304.1556 -214.59202,304.22055 -1.28529,0.0365 -6.12022,-4.04166 -10.74429,-9.06507 z"
   id="path3808"
   inkscape:connector-curvature="0" /><path
   style="fill:#ffffff;stroke-width:4.05932188"
   d="M 470.38407,707.7428 C 465.76001,702.71939 416.36026,633.5817 360.60685,554.10355 L 259.23702,409.59777 323.8804,407.05283 c 35.55386,-1.39971 66.36824,-3.61096 68.4764,-4.91388 2.31641,-1.43161 3.83303,-77.76365 3.83303,-192.9175 V 18.672881 h 83.2161 83.2161 V 209.22145 c 0,120.56851 1.46674,191.45506 3.99377,193.01685 2.19657,1.35756 32.39415,3.57741 67.10571,4.93302 34.71158,1.35561 62.59819,3.8315 61.97021,5.502 -2.4541,6.52849 -212.36632,304.07021 -214.56336,304.13455 -1.28529,0.0365 -6.12022,-4.04166 -10.74429,-9.06507 z"
   id="path3810"
   inkscape:connector-curvature="0" /><path
   style="fill:#ffffff;stroke-width:4.05932188"
   d="m 470.38407,707.7428 c -4.62406,-5.02341 -54.02848,-74.16771 -109.78759,-153.65403 l -101.3802,-144.52053 65.06038,-2.78148 c 35.78321,-1.52982 66.60226,-3.73442 68.48678,-4.89912 1.88451,-1.16469 3.42639,-87.86448 3.42639,-192.66619 V 18.672881 h 83.2161 83.2161 V 209.22145 c 0,104.80171 1.51018,191.4819 3.35596,192.62265 1.84577,1.14076 32.04555,3.35398 67.11062,4.91828 35.06508,1.5643 63.23868,4.21759 62.60803,5.89619 -2.45541,6.53548 -212.36763,304.08484 -214.56828,304.1493 -1.28529,0.0365 -6.12022,-4.04166 -10.74429,-9.06507 z"
   id="path3812"
   inkscape:connector-curvature="0" /></svg>