<?xml version="1.0" encoding="UTF-8" standalone="no"?>
<!-- Generator: Adobe Illustrator 16.0.0, SVG Export Plug-In . SVG Version: 6.00 Build 0)  -->

<svg
   xmlns:dc="http://purl.org/dc/elements/1.1/"
   xmlns:cc="http://creativecommons.org/ns#"
   xmlns:rdf="http://www.w3.org/1999/02/22-rdf-syntax-ns#"
   xmlns:svg="http://www.w3.org/2000/svg"
   xmlns="http://www.w3.org/2000/svg"
   xmlns:sodipodi="http://sodipodi.sourceforge.net/DTD/sodipodi-0.dtd"
   xmlns:inkscape="http://www.inkscape.org/namespaces/inkscape"
   version="1.1"
   id="Capa_1"
   x="0px"
   y="0px"
   width="408px"
   height="408px"
   viewBox="0 0 408 408"
   style="enable-background:new 0 0 408 408;"
   xml:space="preserve"
   sodipodi:docname="refresh-button-white.svg"
   inkscape:version="0.92.3 (2405546, 2018-03-11)"><metadata
   id="metadata42"><rdf:RDF><cc:Work
       rdf:about=""><dc:format>image/svg+xml</dc:format><dc:type
         rdf:resource="http://purl.org/dc/dcmitype/StillImage" /><dc:title></dc:title></cc:Work></rdf:RDF></metadata><defs
   id="defs40" /><sodipodi:namedview
   pagecolor="#ffffff"
   bordercolor="#666666"
   borderopacity="1"
   objecttolerance="10"
   gridtolerance="10"
   guidetolerance="10"
   inkscape:pageopacity="0"
   inkscape:pageshadow="2"
   inkscape:window-width="1144"
   inkscape:window-height="794"
   id="namedview38"
   showgrid="false"
   inkscape:zoom="0.57843137"
   inkscape:cx="204"
   inkscape:cy="204"
   inkscape:window-x="0"
   inkscape:window-y="0"
   inkscape:window-maximized="0"
   inkscape:current-layer="Capa_1" />
<g
   id="g5">
	<g
   id="refresh">
		<path
   d="M346.8,61.2C311.1,22.95,260.1,0,204,0C91.8,0,0,91.8,0,204s91.8,204,204,204c94.35,0,173.4-66.3,196.35-153H346.8    C326.4,313.65,270.3,357,204,357c-84.15,0-153-68.85-153-153c0-84.15,68.85-153,153-153c43.35,0,79.05,17.85,107.1,45.9    l-81.6,81.6H408V0L346.8,61.2z"
   id="path2" />
	</g>
</g>
<g
   id="g7">
</g>
<g
   id="g9">
</g>
<g
   id="g11">
</g>
<g
   id="g13">
</g>
<g
   id="g15">
</g>
<g
   id="g17">
</g>
<g
   id="g19">
</g>
<g
   id="g21">
</g>
<g
   id="g23">
</g>
<g
   id="g25">
</g>
<g
   id="g27">
</g>
<g
   id="g29">
</g>
<g
   id="g31">
</g>
<g
   id="g33">
</g>
<g
   id="g35">
</g>
<path
   style="fill:#ffffff;stroke-width:1.72881353"
   d="M 165.10169,403.17113 C 76.105654,385.1288 8.8844438,309.95561 1.9948755,220.76949 -6.0191291,117.02744 62.011761,26.85785 165.10169,4.5842316 181.86982,0.96131024 222.05308,0.44639297 238.49989,3.6436912 275.94691,10.923481 310.46566,28.142637 335.90322,52.231857 L 346.62712,62.387339 377.31356,31.816767 408,1.2461933 V 89.829877 178.41356 h -88.5879 -88.5879 l 40.55928,-40.58685 40.5593,-40.586849 -5.99682,-6.235279 C 297.02412,81.727962 273.97629,66.955042 259.29408,61.102241 211.49181,42.046722 157.60504,48.755061 114.83028,79.086471 100.9595,88.922186 80.270931,111.16589 72.14511,124.98023 37.318764,184.18691 45.073122,257.849 91.459396,308.45521 c 18.590444,20.2817 47.283164,37.31857 75.371114,44.7531 20.15003,5.33346 53.37456,5.35315 73.35904,0.0434 29.2104,-7.76092 52.26648,-21.31738 72.83177,-42.82344 13.91487,-14.55142 20.93076,-24.68723 28.64438,-41.38235 l 5.93052,-12.83584 h 25.7405 25.74051 l -1.78899,6.48305 c -7.13604,25.86025 -26.82832,58.55333 -49.36553,81.95662 -29.79399,30.93894 -64.331,50.09582 -105.29597,58.40526 -22.57637,4.57945 -55.26738,4.62838 -77.52505,0.116 z"
   id="path44"
   inkscape:connector-curvature="0" /></svg>