<?xml version="1.0" encoding="UTF-8" standalone="no"?>
<!-- Generator: Adobe Illustrator 16.0.0, SVG Export Plug-In . SVG Version: 6.00 Build 0)  -->

<svg
   xmlns:dc="http://purl.org/dc/elements/1.1/"
   xmlns:cc="http://creativecommons.org/ns#"
   xmlns:rdf="http://www.w3.org/1999/02/22-rdf-syntax-ns#"
   xmlns:svg="http://www.w3.org/2000/svg"
   xmlns="http://www.w3.org/2000/svg"
   xmlns:sodipodi="http://sodipodi.sourceforge.net/DTD/sodipodi-0.dtd"
   xmlns:inkscape="http://www.inkscape.org/namespaces/inkscape"
   version="1.1"
   id="Capa_1"
   x="0px"
   y="0px"
   width="408.483px"
   height="408.483px"
   viewBox="0 0 408.483 408.483"
   style="enable-background:new 0 0 408.483 408.483;"
   xml:space="preserve"
   sodipodi:docname="rubbish-bin-white.svg"
   inkscape:version="0.92.3 (2405546, 2018-03-11)"><metadata
   id="metadata45"><rdf:RDF><cc:Work
       rdf:about=""><dc:format>image/svg+xml</dc:format><dc:type
         rdf:resource="http://purl.org/dc/dcmitype/StillImage" /><dc:title></dc:title></cc:Work></rdf:RDF></metadata><defs
   id="defs43" /><sodipodi:namedview
   pagecolor="#ffffff"
   bordercolor="#666666"
   borderopacity="1"
   objecttolerance="10"
   gridtolerance="10"
   guidetolerance="10"
   inkscape:pageopacity="0"
   inkscape:pageshadow="2"
   inkscape:window-width="1112"
   inkscape:window-height="843"
   id="namedview41"
   showgrid="false"
   inkscape:zoom="0.57774742"
   inkscape:cx="204.2415"
   inkscape:cy="204.2415"
   inkscape:window-x="0"
   inkscape:window-y="0"
   inkscape:window-maximized="0"
   inkscape:current-layer="Capa_1" />
<g
   id="g8">
	<g
   id="g6">
		<path
   d="M87.748,388.784c0.461,11.01,9.521,19.699,20.539,19.699h191.911c11.018,0,20.078-8.689,20.539-19.699l13.705-289.316    H74.043L87.748,388.784z M247.655,171.329c0-4.61,3.738-8.349,8.35-8.349h13.355c4.609,0,8.35,3.738,8.35,8.349v165.293    c0,4.611-3.738,8.349-8.35,8.349h-13.355c-4.61,0-8.35-3.736-8.35-8.349V171.329z M189.216,171.329    c0-4.61,3.738-8.349,8.349-8.349h13.355c4.609,0,8.349,3.738,8.349,8.349v165.293c0,4.611-3.737,8.349-8.349,8.349h-13.355    c-4.61,0-8.349-3.736-8.349-8.349V171.329L189.216,171.329z M130.775,171.329c0-4.61,3.738-8.349,8.349-8.349h13.356    c4.61,0,8.349,3.738,8.349,8.349v165.293c0,4.611-3.738,8.349-8.349,8.349h-13.356c-4.61,0-8.349-3.736-8.349-8.349V171.329z"
   id="path2" />
		<path
   d="M343.567,21.043h-88.535V4.305c0-2.377-1.927-4.305-4.305-4.305h-92.971c-2.377,0-4.304,1.928-4.304,4.305v16.737H64.916    c-7.125,0-12.9,5.776-12.9,12.901V74.47h304.451V33.944C356.467,26.819,350.692,21.043,343.567,21.043z"
   id="path4" />
	</g>
</g>
<g
   id="g10">
</g>
<g
   id="g12">
</g>
<g
   id="g14">
</g>
<g
   id="g16">
</g>
<g
   id="g18">
</g>
<g
   id="g20">
</g>
<g
   id="g22">
</g>
<g
   id="g24">
</g>
<g
   id="g26">
</g>
<g
   id="g28">
</g>
<g
   id="g30">
</g>
<g
   id="g32">
</g>
<g
   id="g34">
</g>
<g
   id="g36">
</g>
<g
   id="g38">
</g>
<path
   style="fill:#ffffff;stroke-width:1.73086023"
   d="M 103.73549,406.61156 C 94.798802,403.97891 89.748719,396.38367 88.603746,383.85367 87.579264,372.64229 75.433669,116.01941 75.454046,106.01519 l 0.01146,-5.6253 H 204.41459 c 102.00745,0 128.94827,0.45204 128.94515,2.16358 -0.002,1.18996 -3.10085,67.11691 -6.88598,146.50432 -7.41432,155.50435 -6.6925,148.84497 -16.85559,155.50667 -4.29679,2.81645 -12.24417,3.0767 -102.52936,3.35754 -56.48949,0.17571 -100.18934,-0.37837 -103.35332,-1.31044 z m 54.42618,-63.13395 3.84684,-2.69445 v -85.69322 c 0,-55.7605 -0.62586,-86.86266 -1.79176,-89.04115 -1.50729,-2.8164 -3.69934,-3.34793 -13.80698,-3.34793 -18.70401,0 -17.46826,-6.82665 -16.90284,93.37623 0.46287,82.02947 0.60506,85.2741 3.84049,87.63906 4.53081,3.31181 19.95711,3.16351 24.81425,-0.23854 z m 59.23437,-0.7673 c 3.36709,-3.36709 3.46172,-5.76952 3.46172,-87.88874 0,-98.95968 1.28774,-92.12071 -17.34585,-92.12071 -10.05005,0 -12.24273,0.53393 -13.74874,3.34793 -1.16527,2.17733 -1.79175,33.04227 -1.79175,88.27387 0,82.61813 0.0941,85.02001 3.46172,88.38765 2.62251,2.62252 5.76953,3.46173 12.98145,3.46173 7.21191,0 10.35893,-0.83921 12.98145,-3.46173 z m 57.23217,1.66997 c 3.24251,-1.73534 3.34793,-4.55868 3.34793,-89.65856 0,-66.03303 -0.5161,-88.38292 -2.07703,-89.94383 -2.73567,-2.73568 -24.26574,-2.73568 -27.00142,0 -1.56004,1.56005 -2.07703,23.60557 -2.07703,88.57029 0,99.17248 -1.03237,92.82386 15.09437,92.82386 5.15088,0 10.87182,-0.80629 12.71318,-1.79176 z"
   id="path47"
   inkscape:connector-curvature="0" /><path
   style="fill:#ffffff;stroke-width:1.73086023"
   d="m 52.964321,52.252178 c 0,-32.173411 -4.444842,-29.750996 54.589519,-29.750996 h 47.53123 V 12.301204 c 0,-7.704344 0.66987,-10.4570325 2.73785,-11.2505913 3.57248,-1.37088721 89.61085,-1.37088721 93.18332,0 2.06798,0.7935588 2.73786,3.5462473 2.73786,11.2505913 v 10.199978 h 47.47303 47.47303 l 3.58735,4.560573 c 3.18992,4.055334 3.58734,6.931602 3.58734,25.962902 V 74.426988 H 204.41459 52.964321 Z"
   id="path49"
   inkscape:connector-curvature="0" /></svg>